Patient4_TMGait_0pt5_01_right_37_EMG.mot
version=1
nRows=30
nColumns=33
inDegrees=no
endheader
time	1LAddLong	2LGlutMax	3LGlutMed	4LIliopsoas	5LSemiMemb	6LBicFemLong	7LRecFem	8LVastMed	9LVastLat	10LGasMed	11LTibAnt	12lTibPost	13LPeroneusLong	14LSol	15LExtDigLong	16LFlexDigLong	17RAddLong	18RGlutMax	19RGlutMed	20RIliopsoas	21RSemiMemb	22RBicFemLong	23RRecFem	24RVastMed	25RVastLat	26RGasMed	27RTibAnt	28RTibPost	29RPeroneusLong	30RSol	31RExtDigLong	32RFlexDigLong
49.107	0.002289	0.041199	-0.061646	0.002136	0.003357	0.00946	0.082245	0.005493	0.15625	0.016174	-0.021515	0.001831	0.00473	0.15839	-0.011444	0.036011	-0.043488	-0.29572	0.21515	-0.08728	-0.10864	0.38757	0.14526	-0.013733	0.26688	-0.059967	0.016174	0.039215	0.71732	-0.40222	0.001831	-0.008392
49.108	0.001678	0.036621	-0.079498	0.012512	0.006866	-0.007477	0.1561	0.002899	0.15198	0.023041	-0.024261	0.003662	0.071716	0.25574	-0.005035	-0.10162	-0.039673	-0.29388	-0.034637	0.022125	-0.22995	0.24765	0.13382	0.02121	0.3122	-0.019226	-0.040894	-0.018463	0.84961	-0.06485	0.003204	-0.006104
49.109	0.013733	0.029297	-0.11459	0.030823	0.006866	-0.020142	0.14603	-0.001831	0.15427	0.022736	-0.011139	0.00351	0.057983	0.29007	0.003357	-0.13367	-0.083008	-0.25436	-0.20783	0.054474	0.28641	0.045013	0.077972	0.25879	0.36163	-0.02121	0.06958	-0.048218	0.80688	0.14832	-0.002136	-0.00824
49.11	0.007477	-0.004578	-0.13046	0.030365	0.006409	-0.000458	0.073853	-0.000153	0.16693	0.037079	-0.010834	0.013275	0.005646	0.25024	0.000458	0.028229	-0.032959	-0.42404	-0.38986	0.10407	0.10483	-0.15945	0.12634	0.23773	0.22736	-0.055847	0.10346	-0.050964	1.5366	0.46387	-0.002289	-0.000916
49.111	0.014954	-0.008087	-0.13214	0.017548	0.005341	-0.007629	-0.01358	0.006714	0.20859	0.016479	-0.010071	0.001526	-0.004578	0.095673	0.008698	0.065765	-0.036316	-0.75226	-0.065765	0.075989	-0.24017	-0.15839	0.15076	0.14618	-0.014343	-0.063477	-0.004883	-0.028076	1.0622	0.46066	0.000763	0.003662
49.112	0.012665	0.022125	-0.15335	-0.014191	0.006409	-0.023041	0.083618	-0.002441	0.18005	-0.001373	-0.009308	0.004883	-0.012054	-0.3009	0.032654	0.088501	-0.032959	-0.87845	0.29404	0.050812	-0.13825	-0.11322	0.12543	0.089111	-0.40558	0.046997	-0.12756	-0.019989	-0.74677	0.034027	-0.000763	0.002899
49.113	0.010681	0.006409	-0.15366	-0.008545	0.006104	-0.002747	0.18158	-0.009308	0.2063	0.008545	-0.025787	0.011444	-0.031433	-0.24307	0.037842	0.043335	-0.00824	-1.0915	-0.080109	0.044403	-0.15167	-0.30975	0.12802	0.039368	-0.65552	0.10895	0.05188	-0.023804	-0.96771	-0.16602	-0.004425	-0.000153
49.114	0.009918	-0.053864	-0.14832	0.005798	0.003662	-0.003815	0.23315	-0.01297	0.20523	0.012665	-0.009308	0.018921	-0.039063	0.09903	0.054321	0.016479	-0.016785	-1.1678	-0.26855	-0.052795	-0.010681	-0.41779	0.046692	-0.024567	-0.35461	0.021667	0.10071	-0.046844	-0.18906	-0.25681	-0.005798	-0.00061
49.115	0.016632	-0.059204	-0.13763	-0.000458	0.00351	-0.000916	0.28397	-0.003357	0.19608	0.011749	-0.021362	0.013123	-0.041809	0.22629	0.14236	0.00473	-0.026703	-1.2047	-0.36529	-0.037842	-0.053864	-0.42602	0.019073	-0.097809	0.14191	-0.038605	0.20783	0.098267	-0.87509	-0.24307	0.002441	0.014038
49.116	-0.016632	-0.084839	-0.13794	0.006256	0.012207	-0.015106	0.24429	-0.003967	0.17899	0.001221	-0.082245	0.009766	-0.035706	0.15945	0.08606	0.019073	-0.051727	-1.2657	-0.67673	0.00824	0.048218	-0.34134	0.014954	-0.045013	0.42252	-0.032959	0.23422	0.034027	-0.51682	-0.11688	0.004883	0.012512
49.117	0.067291	-0.085144	-0.15289	0.007782	-0.00061	0.016937	0.36957	0.000153	0.17868	-0.028229	-0.17487	0.014496	0.00473	0.12848	-0.028992	0.014343	-0.051575	-1.2619	-0.76813	0.008545	0.34882	-0.14404	0.039673	0.14847	0.35278	0.031586	0.18066	-0.02533	0.42084	-0.051117	0.003357	0.019226
49.118	0.012512	-0.043793	-0.15091	0.000458	0.001068	0.010834	0.44357	-0.005035	0.17487	-0.021515	-0.21652	0.023804	0.01358	0.15656	-0.10269	0.010986	-0.007172	-1.161	-0.65323	0.025787	0.059052	0.006866	0.14893	0.032654	0.10986	0.10895	0.1001	-0.021362	0.49713	-0.008545	0.006866	0.027771
49.119	0.024414	-0.053711	-0.15732	0.000305	-0.001221	0.006714	0.45151	-0.007935	0.17319	-0.023956	0.028534	0.019226	-0.06012	0.17319	-0.030975	0.01358	0.030823	-1.1203	-0.45166	-0.047455	-0.30975	-0.066376	0.16266	-0.04837	-0.13046	0.016022	-0.067596	-0.033722	-1.4365	-0.10376	0.001526	0.032806
49.12	-0.001831	-0.049744	-0.15228	0.010986	0.015717	0.008545	0.36529	-0.00946	0.16556	-0.039063	0.32013	0.021515	-0.086975	0.15656	-0.021667	0.025787	0.02182	-1.0114	0.23209	-0.054626	-0.37796	-0.16357	0.076599	-0.014954	-0.1799	0.021362	-0.1239	-0.050964	-1.3702	-0.095367	0	0.024261
49.121	0.000305	-0.090332	-0.1532	-0.002747	0.000153	0.001068	0.29938	-0.014648	0.19806	-0.069275	0.52917	0.014801	-0.054932	0.16022	-0.043182	0.026093	-0.023499	-0.81207	0.40131	0.002594	-0.35187	-0.083313	0.024414	0.10513	-0.25177	0.038452	-0.20462	0.022888	-0.50384	-0.14069	-0.00061	0.029602
49.122	-0.002899	-0.046387	-0.1593	0.006409	0.007172	-0.01236	0.30502	-0.015717	0.19775	-0.067139	0.49042	0.010376	0.000305	0.17014	0.001221	0.022278	0.007935	-0.73471	-0.49759	0.099487	0.090027	0.025635	0.14923	-0.083923	-0.50507	0.045471	-0.049438	0.01709	-0.9053	-0.029907	0.009613	0.028229
49.123	-0.00473	-0.076752	-0.15915	-0.000153	0.004578	0.013123	0.17471	-0.008545	0.17899	-0.041809	0.31174	0.009613	0.013428	0.16876	0.4747	0.020142	0.007172	-0.72769	-0.52414	0.043793	0.30807	-0.034027	0.14252	-0.11581	-0.40482	0.055695	0.011597	0.009155	-0.82993	-0.073547	0.001068	0.011139
49.124	-0.004578	-0.11551	-0.13229	-0.003662	0.004425	0.001373	0.082397	-0.007172	0.14816	-0.028076	-0.11231	0.002899	0.011444	0.19028	0.50476	0.021515	0.012512	-0.64514	-0.23483	-0.058441	0.16571	-0.008392	-0.064545	-0.14328	-0.064087	0.029297	-0.011902	0.007477	0.17914	-0.038147	0.006104	0.015564
49.125	-0.0177	-0.0914	-0.12177	-0.006561	0.00473	0.003967	-0.048523	-0.00351	0.14481	-0.02182	-0.28442	0.011444	-0.032501	0.19699	0.40894	0.0177	-0.02533	-0.56534	-0.5545	0.008087	-0.22278	0.039215	-0.092926	-0.071716	0.094147	-0.011139	-0.02243	0.000305	0.87479	0.063629	0.001221	0.011444
49.126	-0.011444	-0.084839	-0.11047	-0.002441	0.001373	0.007172	-0.11688	-0.001373	0.15976	-0.044861	-0.16785	0.010986	-0.040741	0.1976	-0.047607	0.014038	-0.022736	-0.54825	-0.1712	0.084839	-0.29724	0.076294	0.10895	-0.12909	0.08194	-0.016632	-0.030212	-0.04715	0.39902	0.1503	-0.000458	0.009918
49.127	-0.005188	-0.13199	-0.11276	-0.004425	0.001984	-0.002441	-0.042419	-0.005646	0.18951	-0.048676	-0.12833	0.010681	0.00824	0.13321	-0.74066	-0.002289	-0.001526	-0.59143	-0.42129	0.062561	-0.054321	0.14862	0.24277	-0.02182	0.040436	0.069885	0.018463	-0.008545	0.23239	0.11536	0.001068	0.006409
49.128	-0.005646	-0.17914	-0.13596	0	0.000458	0.007019	-0.040283	-0.004425	0.1767	-0.046539	-0.22797	0.004425	0.03891	0.059814	-0.96664	-0.010071	0.009308	-0.45563	-0.21149	0.017548	0.30228	-0.11139	0.34332	0.003204	0.027466	0.15243	0.022125	-0.018768	0.003052	0.052948	0.001831	0.010986
49.129	0.00351	-0.19424	-0.15427	0.020294	-0.002441	-0.003052	-0.18829	-0.00473	0.15182	-0.042877	-0.13153	0.005646	0.056915	-0.004272	-0.19669	-0.007019	0.013275	-0.36514	0.13519	0.032501	0.23392	-0.47226	0.37231	0.036011	-0.080872	0.042114	0.020905	-0.053253	-0.11322	-0.081329	0.000305	0.00061
49.13	-0.001221	-0.2385	-0.14053	0.027618	-0.000458	0.017548	-0.3067	0.001984	0.14221	-0.001984	0.10788	0.005951	-0.010986	-0.057068	0.14984	-0.009918	0.012817	-0.3537	0.45883	-0.03479	-0.21988	-0.45944	0.33142	0.02182	-0.3801	-0.18967	0.017853	-0.066833	-0.046539	0.12543	-0.002289	0.005646
49.131	0.006104	-0.23636	-0.11597	0.009155	0.002899	-0.006866	-0.23895	-0.001068	0.12512	0.020142	0.20737	0.010223	-0.050812	-0.06897	0.168	-0.013275	0.006104	-0.29282	0.18082	-0.018921	-0.49972	-0.41946	0.081329	-0.032196	-0.59464	-0.24384	0.057983	-0.09079	0.21942	0.2121	-0.005188	0
49.132	0.008392	-0.30868	-0.14145	-0.02121	0.001221	0.016937	-0.16052	0.001526	0.11139	-0.011444	0.094604	0.005188	-0.08194	0.018463	0.16266	-0.002441	-0.043488	-0.15595	0.49469	-0.012817	-0.024109	-0.42496	-0.55969	-0.060883	-0.19531	-0.091095	0.00061	0.040283	0.77911	0.17593	-0.004883	0.020447
49.133	0.015869	-0.3421	-0.15015	-0.022278	0.002136	-0.005798	-0.11536	-0.003204	0.14038	-0.046997	-0.26428	-0.001678	-0.010834	0.079498	-0.19379	0.009766	-0.04425	-0.093994	0.054779	0.092468	0.2385	-0.52521	-0.51956	0.002747	0.018005	0.004272	-0.12085	0.13916	1.0149	-0.11826	-0.002289	-0.000458
49.134	0.015869	-0.39505	-0.15167	-0.005341	0.005951	-0.026855	-0.17136	-0.011749	0.14114	-0.069275	-0.16235	0.002594	0.001068	0.059509	-0.24719	0.000458	-0.015106	0.000153	-0.17685	0.089417	0.43808	-0.56854	-0.18784	0.11551	0.11597	0.060425	0.028076	0.045776	0.28412	-0.38864	-0.007324	-0.00946
49.135	0.013275	-0.46188	-0.12558	-0.004272	0.01358	-0.009003	-0.25787	-0.012207	0.11078	-0.089569	-0.11124	0.009155	0.015717	0.10941	0.12604	-0.003967	0.015259	-0.002136	0.17075	0.06134	0.47669	-0.63431	-0.092468	0.058136	0.12116	0.029755	0.10727	0.017853	-0.21652	-0.41718	0.002136	-0.018921
49.136	0.012054	-0.50079	-0.10544	-0.011597	0.009308	-0.028534	-0.26443	-0.008545	0.08316	-0.065918	-0.042725	0.006866	0.033417	0.19196	-0.13229	-0.007935	0.01709	0.13336	0.13275	0.003967	0.18051	-0.68008	-0.10956	0.066681	0.159	0.009766	0.12726	-0.027466	-0.58762	-0.18921	0.000763	-0.011444
